# xmcd
#
# Track frame offsets:
#	150
#	20134
#	38809
#	67551
#	84106
#	102227
#	114946
#	138232
#	159885
#	177082
#	210998
#	228796
#	249278
#	264999
#	288307
#
# Disc length: 4036 seconds
#
# Revision: 1
# Processed by: cddbd v1.5.2PL0 Copyright (c) Steve Scherf et al.
# Submitted via: audiograbber 1.83.01
#
DISCID=aa0fc20f
DTITLE=NRPS - 73-03-18
DYEAR=1900
DGENRE=
TTITLE0=DJ Conversation and Tuning
TTITLE1=I Don't Know You
TTITLE2=One Too Many Stories
TTITLE3=Rainbow
TTITLE4=It's Alright With Me
TTITLE5=Teardrops In My Eyes
TTITLE6=Lochinvar
TTITLE7=Truck Driving Man
TTITLE8=Contract
TTITLE9=Take A Letter Maria
TTITLE10=School Days
TTITLE11=Long Black Veil
TTITLE12=Hello Mary Lou
TTITLE13=Henry
TTITLE14=Crazy Arms
EXTD=
EXTT0=
EXTT1=
EXTT2=
EXTT3=
EXTT4=
EXTT5=
EXTT6=
EXTT7=
EXTT8=
EXTT9=
EXTT10=
EXTT11=
EXTT12=
EXTT13=
EXTT14=
PLAYORDER=
